<?xml version="1.0" encoding="UTF-8" standalone="no"?>
<!DOCTYPE svg PUBLIC "-//W3C//DTD SVG 1.1//EN"
 "http://www.w3.org/Graphics/SVG/1.1/DTD/svg11.dtd">
<!-- Generated by graphviz version 5.0.0 (20220707.1540)
 -->
<!-- Title: dependencies Pages: 1 -->
<svg width="2765pt" height="247pt"
 viewBox="0.00 0.00 2765.00 246.80" xmlns="http://www.w3.org/2000/svg" xmlns:xlink="http://www.w3.org/1999/xlink">
<g id="graph0" class="graph" transform="scale(1 1) rotate(0) translate(4 242.8)">
<title>dependencies</title>
<polygon fill="white" stroke="transparent" points="-4,4 -4,-242.8 2761,-242.8 2761,4 -4,4"/>
<text text-anchor="middle" x="1378.5" y="-8.2" font-family="sans-serif" font-size="14.00">dependencies</text>
<g id="clust1" class="cluster">
<title>cluster_TeacherRouterModule</title>
<polygon fill="none" stroke="black" stroke-dasharray="1,5" points="8,-32.8 8,-230.8 2749,-230.8 2749,-32.8 8,-32.8"/>
</g>
<g id="clust2" class="cluster">
<title>cluster_TeacherRouterModule_declarations</title>
<polygon fill="none" stroke="black" points="398,-40.8 398,-92.8 2741,-92.8 2741,-40.8 398,-40.8"/>
</g>
<g id="clust17" class="cluster">
<title>cluster_TeacherRouterModule_imports</title>
<polygon fill="none" stroke="black" points="16,-40.8 16,-92.8 390,-92.8 390,-40.8 16,-40.8"/>
</g>
<g id="clust18" class="cluster">
<title>cluster_TeacherRouterModule_exports</title>
<polygon fill="none" stroke="black" points="1183,-170.8 1183,-222.8 1675,-222.8 1675,-170.8 1183,-170.8"/>
</g>
<!-- AdminHomeComponent -->
<g id="node1" class="node">
<title>AdminHomeComponent</title>
<polygon fill="#ffffb3" stroke="black" points="2733.44,-84.8 2578.56,-84.8 2578.56,-48.8 2733.44,-48.8 2733.44,-84.8"/>
<text text-anchor="middle" x="2656" y="-62.6" font-family="Times,serif" font-size="14.00">AdminHomeComponent</text>
</g>
<!-- TeacherRouterModule -->
<g id="node15" class="node">
<title>TeacherRouterModule</title>
<polygon fill="#8dd3c7" stroke="black" points="1484.22,-149.8 1481.22,-153.8 1460.22,-153.8 1457.22,-149.8 1341.78,-149.8 1341.78,-113.8 1484.22,-113.8 1484.22,-149.8"/>
<text text-anchor="middle" x="1413" y="-127.6" font-family="Times,serif" font-size="14.00">TeacherRouterModule</text>
</g>
<!-- AdminHomeComponent&#45;&gt;TeacherRouterModule -->
<g id="edge1" class="edge">
<title>AdminHomeComponent&#45;&gt;TeacherRouterModule</title>
<path fill="none" stroke="black" d="M2656,-84.96C2656,-107.15 2656,-141.8 2656,-141.8 2656,-141.8 1494.29,-141.8 1494.29,-141.8"/>
<polygon fill="black" stroke="black" points="1494.29,-138.3 1484.29,-141.8 1494.29,-145.3 1494.29,-138.3"/>
</g>
<!-- AdminMenuComponent -->
<g id="node2" class="node">
<title>AdminMenuComponent</title>
<polygon fill="#ffffb3" stroke="black" points="2560.38,-84.8 2407.62,-84.8 2407.62,-48.8 2560.38,-48.8 2560.38,-84.8"/>
<text text-anchor="middle" x="2484" y="-62.6" font-family="Times,serif" font-size="14.00">AdminMenuComponent</text>
</g>
<!-- AdminMenuComponent&#45;&gt;TeacherRouterModule -->
<g id="edge2" class="edge">
<title>AdminMenuComponent&#45;&gt;TeacherRouterModule</title>
<path fill="none" stroke="black" d="M2484,-85.08C2484,-106.12 2484,-137.8 2484,-137.8 2484,-137.8 1494.52,-137.8 1494.52,-137.8"/>
<polygon fill="black" stroke="black" points="1494.52,-134.3 1484.52,-137.8 1494.52,-141.3 1494.52,-134.3"/>
</g>
<!-- AdminSidenavComponent -->
<g id="node3" class="node">
<title>AdminSidenavComponent</title>
<polygon fill="#ffffb3" stroke="black" points="2389.82,-84.8 2224.18,-84.8 2224.18,-48.8 2389.82,-48.8 2389.82,-84.8"/>
<text text-anchor="middle" x="2307" y="-62.6" font-family="Times,serif" font-size="14.00">AdminSidenavComponent</text>
</g>
<!-- AdminSidenavComponent&#45;&gt;TeacherRouterModule -->
<g id="edge3" class="edge">
<title>AdminSidenavComponent&#45;&gt;TeacherRouterModule</title>
<path fill="none" stroke="black" d="M2307,-85.11C2307,-104.95 2307,-133.8 2307,-133.8 2307,-133.8 1494.27,-133.8 1494.27,-133.8"/>
<polygon fill="black" stroke="black" points="1494.27,-130.3 1484.27,-133.8 1494.27,-137.3 1494.27,-130.3"/>
</g>
<!-- CenterLabelComponent -->
<g id="node4" class="node">
<title>CenterLabelComponent</title>
<polygon fill="#ffffb3" stroke="black" points="2206.02,-84.8 2055.98,-84.8 2055.98,-48.8 2206.02,-48.8 2206.02,-84.8"/>
<text text-anchor="middle" x="2131" y="-62.6" font-family="Times,serif" font-size="14.00">CenterLabelComponent</text>
</g>
<!-- CenterLabelComponent&#45;&gt;TeacherRouterModule -->
<g id="edge4" class="edge">
<title>CenterLabelComponent&#45;&gt;TeacherRouterModule</title>
<path fill="none" stroke="black" d="M2131,-85.02C2131,-103.63 2131,-129.8 2131,-129.8 2131,-129.8 1494.47,-129.8 1494.47,-129.8"/>
<polygon fill="black" stroke="black" points="1494.47,-126.3 1484.47,-129.8 1494.47,-133.3 1494.47,-126.3"/>
</g>
<!-- CenterManagerComponent -->
<g id="node5" class="node">
<title>CenterManagerComponent</title>
<polygon fill="#ffffb3" stroke="black" points="2038.4,-84.8 1869.6,-84.8 1869.6,-48.8 2038.4,-48.8 2038.4,-84.8"/>
<text text-anchor="middle" x="1954" y="-62.6" font-family="Times,serif" font-size="14.00">CenterManagerComponent</text>
</g>
<!-- CenterManagerComponent&#45;&gt;TeacherRouterModule -->
<g id="edge5" class="edge">
<title>CenterManagerComponent&#45;&gt;TeacherRouterModule</title>
<path fill="none" stroke="black" d="M1954,-84.82C1954,-102.17 1954,-125.8 1954,-125.8 1954,-125.8 1494.28,-125.8 1494.28,-125.8"/>
<polygon fill="black" stroke="black" points="1494.28,-122.3 1484.28,-125.8 1494.28,-129.3 1494.28,-122.3"/>
</g>
<!-- CreateUserComponent -->
<g id="node6" class="node">
<title>CreateUserComponent</title>
<polygon fill="#ffffb3" stroke="black" points="1852.3,-84.8 1707.7,-84.8 1707.7,-48.8 1852.3,-48.8 1852.3,-84.8"/>
<text text-anchor="middle" x="1780" y="-62.6" font-family="Times,serif" font-size="14.00">CreateUserComponent</text>
</g>
<!-- CreateUserComponent&#45;&gt;TeacherRouterModule -->
<g id="edge6" class="edge">
<title>CreateUserComponent&#45;&gt;TeacherRouterModule</title>
<path fill="none" stroke="black" d="M1780,-84.81C1780,-100.85 1780,-121.8 1780,-121.8 1780,-121.8 1494.63,-121.8 1494.63,-121.8"/>
<polygon fill="black" stroke="black" points="1494.63,-118.3 1484.63,-121.8 1494.63,-125.3 1494.63,-118.3"/>
</g>
<!-- FooterComponent -->
<g id="node7" class="node">
<title>FooterComponent</title>
<polygon fill="#ffffb3" stroke="black" points="1689.88,-84.8 1572.12,-84.8 1572.12,-48.8 1689.88,-48.8 1689.88,-84.8"/>
<text text-anchor="middle" x="1631" y="-62.6" font-family="Times,serif" font-size="14.00">FooterComponent</text>
</g>
<!-- FooterComponent&#45;&gt;TeacherRouterModule -->
<g id="edge7" class="edge">
<title>FooterComponent&#45;&gt;TeacherRouterModule</title>
<path fill="none" stroke="black" d="M1619.51,-84.92C1619.51,-99.58 1619.51,-117.8 1619.51,-117.8 1619.51,-117.8 1494.36,-117.8 1494.36,-117.8"/>
<polygon fill="black" stroke="black" points="1494.36,-114.3 1484.36,-117.8 1494.36,-121.3 1494.36,-114.3"/>
</g>
<!-- HeaderComponent -->
<g id="node8" class="node">
<title>HeaderComponent</title>
<polygon fill="#ffffb3" stroke="black" points="1553.75,-84.8 1432.25,-84.8 1432.25,-48.8 1553.75,-48.8 1553.75,-84.8"/>
<text text-anchor="middle" x="1493" y="-62.6" font-family="Times,serif" font-size="14.00">HeaderComponent</text>
</g>
<!-- HeaderComponent&#45;&gt;TeacherRouterModule -->
<g id="edge8" class="edge">
<title>HeaderComponent&#45;&gt;TeacherRouterModule</title>
<path fill="none" stroke="black" d="M1458.24,-84.91C1458.24,-84.91 1458.24,-103.79 1458.24,-103.79"/>
<polygon fill="black" stroke="black" points="1454.74,-103.79 1458.24,-113.79 1461.74,-103.79 1454.74,-103.79"/>
</g>
<!-- ItemsManagerComponent -->
<g id="node9" class="node">
<title>ItemsManagerComponent</title>
<polygon fill="#ffffb3" stroke="black" points="1414.19,-84.8 1251.81,-84.8 1251.81,-48.8 1414.19,-48.8 1414.19,-84.8"/>
<text text-anchor="middle" x="1333" y="-62.6" font-family="Times,serif" font-size="14.00">ItemsManagerComponent</text>
</g>
<!-- ItemsManagerComponent&#45;&gt;TeacherRouterModule -->
<g id="edge9" class="edge">
<title>ItemsManagerComponent&#45;&gt;TeacherRouterModule</title>
<path fill="none" stroke="black" d="M1377.87,-84.91C1377.87,-84.91 1377.87,-103.79 1377.87,-103.79"/>
<polygon fill="black" stroke="black" points="1374.37,-103.79 1377.87,-113.79 1381.37,-103.79 1374.37,-103.79"/>
</g>
<!-- MapComponent -->
<g id="node10" class="node">
<title>MapComponent</title>
<polygon fill="#ffffb3" stroke="black" points="1233.49,-84.8 1126.51,-84.8 1126.51,-48.8 1233.49,-48.8 1233.49,-84.8"/>
<text text-anchor="middle" x="1180" y="-62.6" font-family="Times,serif" font-size="14.00">MapComponent</text>
</g>
<!-- MapComponent&#45;&gt;TeacherRouterModule -->
<g id="edge10" class="edge">
<title>MapComponent&#45;&gt;TeacherRouterModule</title>
<path fill="none" stroke="black" d="M1212.44,-84.92C1212.44,-99.58 1212.44,-117.8 1212.44,-117.8 1212.44,-117.8 1331.72,-117.8 1331.72,-117.8"/>
<polygon fill="black" stroke="black" points="1331.72,-121.3 1341.72,-117.8 1331.72,-114.3 1331.72,-121.3"/>
</g>
<!-- RouteManagerComponent -->
<g id="node11" class="node">
<title>RouteManagerComponent</title>
<polygon fill="#ffffb3" stroke="black" points="1108.03,-84.8 943.97,-84.8 943.97,-48.8 1108.03,-48.8 1108.03,-84.8"/>
<text text-anchor="middle" x="1026" y="-62.6" font-family="Times,serif" font-size="14.00">RouteManagerComponent</text>
</g>
<!-- RouteManagerComponent&#45;&gt;TeacherRouterModule -->
<g id="edge11" class="edge">
<title>RouteManagerComponent&#45;&gt;TeacherRouterModule</title>
<path fill="none" stroke="black" d="M1026,-84.81C1026,-100.85 1026,-121.8 1026,-121.8 1026,-121.8 1331.57,-121.8 1331.57,-121.8"/>
<polygon fill="black" stroke="black" points="1331.57,-125.3 1341.57,-121.8 1331.57,-118.3 1331.57,-125.3"/>
</g>
<!-- TeacherHomeComponent -->
<g id="node12" class="node">
<title>TeacherHomeComponent</title>
<polygon fill="#ffffb3" stroke="black" points="925.11,-84.8 764.89,-84.8 764.89,-48.8 925.11,-48.8 925.11,-84.8"/>
<text text-anchor="middle" x="845" y="-62.6" font-family="Times,serif" font-size="14.00">TeacherHomeComponent</text>
</g>
<!-- TeacherHomeComponent&#45;&gt;TeacherRouterModule -->
<g id="edge12" class="edge">
<title>TeacherHomeComponent&#45;&gt;TeacherRouterModule</title>
<path fill="none" stroke="black" d="M845,-84.82C845,-102.17 845,-125.8 845,-125.8 845,-125.8 1331.64,-125.8 1331.64,-125.8"/>
<polygon fill="black" stroke="black" points="1331.64,-129.3 1341.64,-125.8 1331.64,-122.3 1331.64,-129.3"/>
</g>
<!-- UserManagerComponent -->
<g id="node13" class="node">
<title>UserManagerComponent</title>
<polygon fill="#ffffb3" stroke="black" points="746.52,-84.8 589.48,-84.8 589.48,-48.8 746.52,-48.8 746.52,-84.8"/>
<text text-anchor="middle" x="668" y="-62.6" font-family="Times,serif" font-size="14.00">UserManagerComponent</text>
</g>
<!-- UserManagerComponent&#45;&gt;TeacherRouterModule -->
<g id="edge13" class="edge">
<title>UserManagerComponent&#45;&gt;TeacherRouterModule</title>
<path fill="none" stroke="black" d="M668,-85.02C668,-103.63 668,-129.8 668,-129.8 668,-129.8 1331.57,-129.8 1331.57,-129.8"/>
<polygon fill="black" stroke="black" points="1331.57,-133.3 1341.57,-129.8 1331.57,-126.3 1331.57,-133.3"/>
</g>
<!-- VisitorSidenavComponent -->
<g id="node14" class="node">
<title>VisitorSidenavComponent</title>
<polygon fill="#ffffb3" stroke="black" points="571.82,-84.8 406.18,-84.8 406.18,-48.8 571.82,-48.8 571.82,-84.8"/>
<text text-anchor="middle" x="489" y="-62.6" font-family="Times,serif" font-size="14.00">VisitorSidenavComponent</text>
</g>
<!-- VisitorSidenavComponent&#45;&gt;TeacherRouterModule -->
<g id="edge14" class="edge">
<title>VisitorSidenavComponent&#45;&gt;TeacherRouterModule</title>
<path fill="none" stroke="black" d="M489,-85.11C489,-104.95 489,-133.8 489,-133.8 489,-133.8 1331.65,-133.8 1331.65,-133.8"/>
<polygon fill="black" stroke="black" points="1331.65,-137.3 1341.65,-133.8 1331.65,-130.3 1331.65,-137.3"/>
</g>
<!-- AdminHomeComponent  -->
<g id="node18" class="node">
<title>AdminHomeComponent </title>
<polygon fill="#fb8072" stroke="black" points="1666.93,-214.8 1509.07,-214.8 1509.07,-178.8 1666.93,-178.8 1666.93,-214.8"/>
<text text-anchor="middle" x="1588" y="-192.6" font-family="Times,serif" font-size="14.00">AdminHomeComponent </text>
</g>
<!-- TeacherRouterModule&#45;&gt;AdminHomeComponent  -->
<g id="edge17" class="edge">
<title>TeacherRouterModule&#45;&gt;AdminHomeComponent </title>
<path fill="none" stroke="black" stroke-dasharray="5,2" d="M1484.3,-145.8C1509.38,-145.8 1531.45,-145.8 1531.45,-145.8 1531.45,-145.8 1531.45,-168.68 1531.45,-168.68"/>
<polygon fill="black" stroke="black" points="1527.95,-168.68 1531.45,-178.68 1534.95,-168.68 1527.95,-168.68"/>
</g>
<!-- AdminMenuComponent  -->
<g id="node19" class="node">
<title>AdminMenuComponent </title>
<polygon fill="#fb8072" stroke="black" points="1491.38,-214.8 1334.62,-214.8 1334.62,-178.8 1491.38,-178.8 1491.38,-214.8"/>
<text text-anchor="middle" x="1413" y="-192.6" font-family="Times,serif" font-size="14.00">AdminMenuComponent </text>
</g>
<!-- TeacherRouterModule&#45;&gt;AdminMenuComponent  -->
<g id="edge18" class="edge">
<title>TeacherRouterModule&#45;&gt;AdminMenuComponent </title>
<path fill="none" stroke="black" stroke-dasharray="5,2" d="M1413,-149.91C1413,-149.91 1413,-168.79 1413,-168.79"/>
<polygon fill="black" stroke="black" points="1409.5,-168.79 1413,-178.79 1416.5,-168.79 1409.5,-168.79"/>
</g>
<!-- HeaderComponent  -->
<g id="node20" class="node">
<title>HeaderComponent </title>
<polygon fill="#fb8072" stroke="black" points="1316.75,-214.8 1191.25,-214.8 1191.25,-178.8 1316.75,-178.8 1316.75,-214.8"/>
<text text-anchor="middle" x="1254" y="-192.6" font-family="Times,serif" font-size="14.00">HeaderComponent </text>
</g>
<!-- TeacherRouterModule&#45;&gt;HeaderComponent  -->
<g id="edge19" class="edge">
<title>TeacherRouterModule&#45;&gt;HeaderComponent </title>
<path fill="none" stroke="black" stroke-dasharray="5,2" d="M1341.48,-145.8C1311.85,-145.8 1284.26,-145.8 1284.26,-145.8 1284.26,-145.8 1284.26,-168.68 1284.26,-168.68"/>
<polygon fill="black" stroke="black" points="1280.76,-168.68 1284.26,-178.68 1287.76,-168.68 1280.76,-168.68"/>
</g>
<!-- AngularMaterialModule -->
<g id="node16" class="node">
<title>AngularMaterialModule</title>
<polygon fill="#8dd3c7" stroke="black" points="382.35,-84.8 379.35,-88.8 358.35,-88.8 355.35,-84.8 229.65,-84.8 229.65,-48.8 382.35,-48.8 382.35,-84.8"/>
<text text-anchor="middle" x="306" y="-62.6" font-family="Times,serif" font-size="14.00">AngularMaterialModule</text>
</g>
<!-- AngularMaterialModule&#45;&gt;TeacherRouterModule -->
<g id="edge15" class="edge">
<title>AngularMaterialModule&#45;&gt;TeacherRouterModule</title>
<path fill="none" stroke="black" d="M306,-85.08C306,-106.12 306,-137.8 306,-137.8 306,-137.8 1331.64,-137.8 1331.64,-137.8"/>
<polygon fill="black" stroke="black" points="1331.64,-141.3 1341.64,-137.8 1331.64,-134.3 1331.64,-141.3"/>
</g>
<!-- TeacherRouterRoutingModule -->
<g id="node17" class="node">
<title>TeacherRouterRoutingModule</title>
<polygon fill="#8dd3c7" stroke="black" points="211.84,-84.8 208.84,-88.8 187.84,-88.8 184.84,-84.8 24.16,-84.8 24.16,-48.8 211.84,-48.8 211.84,-84.8"/>
<text text-anchor="middle" x="118" y="-62.6" font-family="Times,serif" font-size="14.00">TeacherRouterRoutingModule</text>
</g>
<!-- TeacherRouterRoutingModule&#45;&gt;TeacherRouterModule -->
<g id="edge16" class="edge">
<title>TeacherRouterRoutingModule&#45;&gt;TeacherRouterModule</title>
<path fill="none" stroke="black" d="M118,-84.96C118,-107.15 118,-141.8 118,-141.8 118,-141.8 1331.53,-141.8 1331.53,-141.8"/>
<polygon fill="black" stroke="black" points="1331.53,-145.3 1341.53,-141.8 1331.53,-138.3 1331.53,-145.3"/>
</g>
</g>
</svg>
