<?xml version="1.0" encoding="UTF-8" standalone="no"?>
<!DOCTYPE svg PUBLIC "-//W3C//DTD SVG 1.1//EN"
 "http://www.w3.org/Graphics/SVG/1.1/DTD/svg11.dtd">
<!-- Generated by graphviz version 5.0.0 (20220707.1540)
 -->
<!-- Title: dependencies Pages: 1 -->
<svg width="714pt" height="247pt"
 viewBox="0.00 0.00 714.00 246.80" xmlns="http://www.w3.org/2000/svg" xmlns:xlink="http://www.w3.org/1999/xlink">
<g id="graph0" class="graph" transform="scale(1 1) rotate(0) translate(4 242.8)">
<title>dependencies</title>
<polygon fill="white" stroke="transparent" points="-4,4 -4,-242.8 710,-242.8 710,4 -4,4"/>
<text text-anchor="middle" x="353" y="-8.2" font-family="sans-serif" font-size="14.00">dependencies</text>
<g id="clust7" class="cluster">
<title>cluster_AppModule</title>
<polygon fill="none" stroke="black" stroke-dasharray="1,5" points="8,-32.8 8,-230.8 298,-230.8 298,-32.8 8,-32.8"/>
</g>
<g id="clust8" class="cluster">
<title>cluster_AppModule_declarations</title>
<polygon fill="none" stroke="black" points="168,-40.8 168,-92.8 290,-92.8 290,-40.8 168,-40.8"/>
</g>
<g id="clust10" class="cluster">
<title>cluster_AppModule_imports</title>
<polygon fill="none" stroke="black" points="16,-40.8 16,-92.8 160,-92.8 160,-40.8 16,-40.8"/>
</g>
<g id="clust12" class="cluster">
<title>cluster_AppModule_bootstrap</title>
<polygon fill="none" stroke="black" points="96,-170.8 96,-222.8 220,-222.8 220,-170.8 96,-170.8"/>
</g>
<g id="clust20" class="cluster">
<title>cluster_AuthModule</title>
<polygon fill="none" stroke="black" stroke-dasharray="1,5" points="306,-32.8 306,-157.8 470,-157.8 470,-32.8 306,-32.8"/>
</g>
<g id="clust22" class="cluster">
<title>cluster_AuthModule_imports</title>
<polygon fill="none" stroke="black" points="314,-40.8 314,-92.8 462,-92.8 462,-40.8 314,-40.8"/>
</g>
<g id="clust32" class="cluster">
<title>cluster_TeacherRouterModule</title>
<polygon fill="none" stroke="black" stroke-dasharray="1,5" points="478,-32.8 478,-157.8 698,-157.8 698,-32.8 478,-32.8"/>
</g>
<g id="clust34" class="cluster">
<title>cluster_TeacherRouterModule_imports</title>
<polygon fill="none" stroke="black" points="486,-40.8 486,-92.8 690,-92.8 690,-40.8 486,-40.8"/>
</g>
<!-- AppComponent -->
<g id="node1" class="node">
<title>AppComponent</title>
<polygon fill="#ffffb3" stroke="black" points="281.94,-84.8 176.06,-84.8 176.06,-48.8 281.94,-48.8 281.94,-84.8"/>
<text text-anchor="middle" x="229" y="-62.6" font-family="Times,serif" font-size="14.00">AppComponent</text>
</g>
<!-- AppModule -->
<g id="node2" class="node">
<title>AppModule</title>
<polygon fill="#8dd3c7" stroke="black" points="199.66,-149.8 196.66,-153.8 175.66,-153.8 172.66,-149.8 116.34,-149.8 116.34,-113.8 199.66,-113.8 199.66,-149.8"/>
<text text-anchor="middle" x="158" y="-127.6" font-family="Times,serif" font-size="14.00">AppModule</text>
</g>
<!-- AppComponent&#45;&gt;AppModule -->
<g id="edge1" class="edge">
<title>AppComponent&#45;&gt;AppModule</title>
<path fill="none" stroke="black" d="M188.06,-84.91C188.06,-84.91 188.06,-103.79 188.06,-103.79"/>
<polygon fill="black" stroke="black" points="184.56,-103.79 188.06,-113.79 191.56,-103.79 184.56,-103.79"/>
</g>
<!-- AppComponent  -->
<g id="node4" class="node">
<title>AppComponent </title>
<polygon fill="#80b1d3" stroke="black" points="212.44,-214.8 103.56,-214.8 103.56,-178.8 212.44,-178.8 212.44,-214.8"/>
<text text-anchor="middle" x="158" y="-192.6" font-family="Times,serif" font-size="14.00">AppComponent </text>
</g>
<!-- AppModule&#45;&gt;AppComponent  -->
<g id="edge3" class="edge">
<title>AppModule&#45;&gt;AppComponent </title>
<path fill="none" stroke="black" stroke-dasharray="1,5" d="M158,-149.91C158,-149.91 158,-168.79 158,-168.79"/>
<polygon fill="black" stroke="black" points="154.5,-168.79 158,-178.79 161.5,-168.79 154.5,-168.79"/>
</g>
<!-- AppRoutingModule -->
<g id="node3" class="node">
<title>AppRoutingModule</title>
<polygon fill="#8dd3c7" stroke="black" points="152.28,-84.8 149.28,-88.8 128.28,-88.8 125.28,-84.8 23.72,-84.8 23.72,-48.8 152.28,-48.8 152.28,-84.8"/>
<text text-anchor="middle" x="88" y="-62.6" font-family="Times,serif" font-size="14.00">AppRoutingModule</text>
</g>
<!-- AppRoutingModule&#45;&gt;AppModule -->
<g id="edge2" class="edge">
<title>AppRoutingModule&#45;&gt;AppModule</title>
<path fill="none" stroke="black" d="M134.28,-84.91C134.28,-84.91 134.28,-103.79 134.28,-103.79"/>
<polygon fill="black" stroke="black" points="130.78,-103.79 134.28,-113.79 137.78,-103.79 130.78,-103.79"/>
</g>
<!-- AuthRoutingModule -->
<g id="node5" class="node">
<title>AuthRoutingModule</title>
<polygon fill="#8dd3c7" stroke="black" points="454.17,-84.8 451.17,-88.8 430.17,-88.8 427.17,-84.8 321.83,-84.8 321.83,-48.8 454.17,-48.8 454.17,-84.8"/>
<text text-anchor="middle" x="388" y="-62.6" font-family="Times,serif" font-size="14.00">AuthRoutingModule</text>
</g>
<!-- AuthModule -->
<g id="node6" class="node">
<title>AuthModule</title>
<polygon fill="#8dd3c7" stroke="black" points="431.55,-149.8 428.55,-153.8 407.55,-153.8 404.55,-149.8 344.45,-149.8 344.45,-113.8 431.55,-113.8 431.55,-149.8"/>
<text text-anchor="middle" x="388" y="-127.6" font-family="Times,serif" font-size="14.00">AuthModule</text>
</g>
<!-- AuthRoutingModule&#45;&gt;AuthModule -->
<g id="edge4" class="edge">
<title>AuthRoutingModule&#45;&gt;AuthModule</title>
<path fill="none" stroke="black" d="M388,-84.91C388,-84.91 388,-103.79 388,-103.79"/>
<polygon fill="black" stroke="black" points="384.5,-103.79 388,-113.79 391.5,-103.79 384.5,-103.79"/>
</g>
<!-- TeacherRouterRoutingModule -->
<g id="node7" class="node">
<title>TeacherRouterRoutingModule</title>
<polygon fill="#8dd3c7" stroke="black" points="681.84,-84.8 678.84,-88.8 657.84,-88.8 654.84,-84.8 494.16,-84.8 494.16,-48.8 681.84,-48.8 681.84,-84.8"/>
<text text-anchor="middle" x="588" y="-62.6" font-family="Times,serif" font-size="14.00">TeacherRouterRoutingModule</text>
</g>
<!-- TeacherRouterModule -->
<g id="node8" class="node">
<title>TeacherRouterModule</title>
<polygon fill="#8dd3c7" stroke="black" points="659.22,-149.8 656.22,-153.8 635.22,-153.8 632.22,-149.8 516.78,-149.8 516.78,-113.8 659.22,-113.8 659.22,-149.8"/>
<text text-anchor="middle" x="588" y="-127.6" font-family="Times,serif" font-size="14.00">TeacherRouterModule</text>
</g>
<!-- TeacherRouterRoutingModule&#45;&gt;TeacherRouterModule -->
<g id="edge5" class="edge">
<title>TeacherRouterRoutingModule&#45;&gt;TeacherRouterModule</title>
<path fill="none" stroke="black" d="M588,-84.91C588,-84.91 588,-103.79 588,-103.79"/>
<polygon fill="black" stroke="black" points="584.5,-103.79 588,-113.79 591.5,-103.79 584.5,-103.79"/>
</g>
</g>
</svg>
